# xmcd
#
# Track frame offsets:
#	150
#	17411
#	38936
#	59862
#	73932
#	91366
#	112693
#	134944
#	152692
#	169864
#
# Disc length: 2489 seconds
#
# Revision: 1
# Processed by: cddbd v1.5.2PL0 Copyright (c) Steve Scherf et al.
# Submitted via: audiograbber 1.83.01
#
DISCID=8c09b70a
DTITLE=Charles Wilson - Troubled Child
DYEAR=2009
DGENRE=Blues
TTITLE0=Where My Baby Went
TTITLE1=Someone Must Have Taught You
TTITLE2=It's Love That Really counts
TTITLE3=I Want To Shout About It
TTITLE4=Somebody's Tears
TTITLE5=Troubled Child
TTITLE6=Is This Love
TTITLE7=I Don't Want To Take a chance
TTITLE8=The Good Side Of My Girl
TTITLE9=Put Something Into It
EXTD=
EXTT0=
EXTT1=
EXTT2=
EXTT3=
EXTT4=
EXTT5=
EXTT6=
EXTT7=
EXTT8=
EXTT9=
PLAYORDER=
